<?xml version="1.0" encoding="iso-8859-1"?>
<!-- Uploaded to: SVG Repo, www.svgrepo.com, Generator: SVG Repo Mixer Tools -->
<svg fill="#000000" height="800px" width="800px" version="1.1" id="Layer_1" xmlns="http://www.w3.org/2000/svg" xmlns:xlink="http://www.w3.org/1999/xlink" 
	 viewBox="0 0 512 512" xml:space="preserve">
<g>
	<g>
		<path d="M508.446,247.57c-1.18-4.469-5.762-7.134-10.227-5.955c-4.469,1.18-7.135,5.758-5.955,10.227
			c5.757,21.804,3.113,44.457-7.151,64.042c-0.288-0.316-0.56-0.643-0.864-0.946c-3.624-3.624-8.09-6.098-12.955-7.249
			c5.093-10.133,7.808-21.381,7.808-33.052c0-19.694-7.671-38.207-21.598-52.127c-28.685-28.685-75.32-28.736-104.075-0.168
			c-0.006,0.004-0.009,0.004-0.013,0.01l-47.995,45.458l-24.363-33.421c-3.951-5.421-3.382-12.792,1.351-17.526l65.199-65.188
			c4.729-4.735,12.1-5.305,17.524-1.36l40.325,29.391c4.577,3.333,9.993,5.626,15.662,6.63c0.125,0.022,0.254,0.041,0.387,0.058
			c18.923,3.454,35.925,12.708,49.188,26.777c4.035,4.278,7.653,8.938,10.757,13.853c2.468,3.907,7.635,5.076,11.544,2.606
			c3.907-2.468,5.074-7.636,2.606-11.544c-3.676-5.822-7.96-11.338-12.731-16.397c-15.821-16.78-36.137-27.787-58.752-31.83
			c-0.122-0.022-0.249-0.041-0.377-0.057c-3.069-0.588-5.978-1.838-8.428-3.623l-40.329-29.393
			c-12.135-8.829-28.63-7.541-39.214,3.058l-24.427,24.423c-0.543-0.578-1.089-1.156-1.65-1.717
			c-29.61-29.61-77.799-29.612-107.422,0c-0.561,0.561-1.106,1.138-1.648,1.715l-24.416-24.416
			c-10.597-10.611-27.093-11.897-39.224-3.058l-40.311,29.38c-2.495,1.812-5.329,3.031-8.426,3.626
			c-0.135,0.018-0.269,0.038-0.403,0.061c-22.615,4.043-42.932,15.05-58.752,31.83C-5.97,238.88-9.675,295.05,19.803,336.239
			c0.483,6.475,3.274,12.643,7.91,17.279c4.637,4.637,10.812,7.426,17.3,7.907c17.969,12.78,39.512,19.639,61.59,19.639
			c2.367,0,4.74-0.079,7.113-0.237c25.701-1.714,49.898-12.701,68.133-30.935c17.33-17.329,27.865-44.237,31.284-65.212
			c2.007-1.132,3.786-2.687,5.197-4.617l26.113-35.821c8.823-12.127,7.537-28.619-3.058-39.214L212.457,176.1
			c0.537-0.581,1.086-1.153,1.647-1.714c23.096-23.087,60.668-23.087,83.754-0.001c0.562,0.562,1.112,1.135,1.65,1.716
			l-28.931,28.927c-10.601,10.601-11.88,27.095-3.043,39.22l26.098,35.802c1.406,1.937,3.187,3.497,5.199,4.634
			c3.43,20.979,13.971,47.888,31.291,65.209c18.23,18.236,42.426,29.223,68.131,30.936c2.375,0.158,4.746,0.237,7.114,0.237
			c22.081,0,43.628-6.862,61.595-19.639c6.481-0.482,12.651-3.271,17.287-7.907c4.623-4.624,7.409-10.774,7.896-17.217
			C510.62,310.503,516.568,278.326,508.446,247.57z M54.457,341.681c-1.877,1.877-4.365,2.97-7.006,3.079
			c-2.991,0.119-5.795-0.97-7.905-3.079c-2.11-2.108-3.203-4.907-3.078-7.903c0.103-2.641,1.193-5.126,3.078-7.006
			c2.055-2.055,4.755-3.083,7.455-3.083c2.699,0,5.399,1.028,7.454,3.082c0.001,0.001,0.001,0.002,0.002,0.002
			c0.001,0.001,0.002,0.002,0.004,0.003c1.988,1.986,3.083,4.63,3.083,7.445C57.546,337.04,56.449,339.689,54.457,341.681z
			 M170.014,338.057c-27.825,27.823-70.567,33.792-104.592,16.252c0.289-0.266,0.59-0.513,0.869-0.792
			c3.632-3.633,6.108-8.111,7.256-12.991c10.364,5.185,21.698,7.797,33.04,7.797c18.88,0,37.76-7.184,52.134-21.551
			c16.714-16.722,23.686-39.535,20.959-61.355l17.004,16.108C193.867,299.319,184.756,323.315,170.014,338.057z M229.552,216.86
			c4.734,4.735,5.306,12.109,1.363,17.527l-24.368,33.428l-47.989-45.463l0.001,0.006c-14.806-14.711-35.234-22.482-56.093-21.322
			c-4.615,0.257-8.147,4.206-7.889,8.821c0.257,4.615,4.231,8.142,8.82,7.891c16.183-0.905,32.034,5.149,43.489,16.598
			c22.216,22.216,22.215,58.37,0.001,80.593c-22.221,22.21-58.376,22.211-80.594,0.002c-22.216-22.226-22.217-58.38-0.002-80.595
			c4.253-4.251,9.096-7.778,14.394-10.481c4.116-2.101,5.751-7.141,3.651-11.258c-2.101-4.117-7.141-5.751-11.257-3.651
			c-6.861,3.501-13.126,8.061-18.621,13.554c-23.002,23.002-27.575,57.549-13.754,85.172c-4.878,1.148-9.354,3.622-12.982,7.248
			c-0.301,0.3-0.569,0.624-0.855,0.936c-17.389-33.276-12.208-74.468,14.402-102.696c13.256-14.061,30.249-23.312,49.162-26.771
			c0.138-0.018,0.276-0.038,0.413-0.062c5.661-1.003,11.077-3.294,15.675-6.632l40.322-29.388c5.423-3.951,12.792-3.38,17.528,1.362
			L229.552,216.86z M365.086,234.345c0.001,0,0.001,0,0.002-0.001c11.108-11.108,25.699-16.663,40.291-16.663
			s29.185,5.555,40.293,16.664c10.765,10.76,16.694,25.07,16.694,40.292c0,15.222-5.929,29.535-16.695,40.302
			c-11.111,11.11-25.698,16.664-40.292,16.663c-14.589-0.001-29.185-5.555-40.292-16.663
			c-10.766-10.766-16.695-25.079-16.695-40.302C348.392,259.414,354.321,245.105,365.086,234.345z M341.959,338.057
			c-14.735-14.735-23.852-38.734-26.679-56.534l16.961-16.065c-0.374,3.023-0.585,6.083-0.585,9.178
			c0,19.693,7.671,38.209,21.598,52.136c14.371,14.371,33.248,21.556,52.125,21.556c11.339,0,22.672-2.613,33.035-7.799
			c1.149,4.878,3.624,9.356,7.256,12.987c0.28,0.28,0.584,0.529,0.874,0.796C412.519,371.853,369.778,365.886,341.959,338.057z
			 M472.415,341.683c-2.08,2.08-4.954,3.201-7.895,3.079c-2.648-0.109-5.139-1.203-7.015-3.079c-1.992-1.992-3.09-4.642-3.09-7.46
			c0-2.816,1.096-5.461,3.085-7.447c0.001-0.001,0.002-0.003,0.004-0.004c1.992-1.992,4.639-3.088,7.455-3.088
			s5.463,1.097,7.464,3.098c1.868,1.862,2.954,4.355,3.058,7.04C475.608,336.789,474.519,339.581,472.415,341.683z"/>
	</g>
</g>
<g>
	<g>
		<circle cx="305.637" cy="227.533" r="8.368"/>
	</g>
</g>
<g>
	<g>
		<circle cx="206.335" cy="227.533" r="8.368"/>
	</g>
</g>
</svg>