<svg xmlns="http://www.w3.org/2000/svg" xmlns:xlink="http://www.w3.org/1999/xlink" zoomAndPan="magnify" viewBox="0 0 375 374.999991" height="500" preserveAspectRatio="xMidYMid meet" version="1.0"><defs><g/></defs><rect x="-37.5" fill="#ffffff" y="-37.499999" fill-opacity="1"/><rect x="-37.5" fill="#ffffff" y="-37.499999" fill-opacity="1"/><g fill="#001734" fill-opacity="1"><g transform="translate(35.050783, 198.749987)"><g><path d="M 18.734375 0.546875 C 13.472656 0.535156 9.34375 -0.789062 6.34375 -3.4375 C 3.34375 -6.082031 1.84375 -9.707031 1.84375 -14.3125 C 1.84375 -18.914062 3.328125 -22.546875 6.296875 -25.203125 C 9.265625 -27.867188 13.34375 -29.203125 18.53125 -29.203125 C 22.476562 -29.203125 25.867188 -28.460938 28.703125 -26.984375 L 28.78125 -19.953125 L 28.453125 -19.953125 C 27.066406 -24.972656 23.894531 -27.484375 18.9375 -27.484375 C 15.71875 -27.484375 13.171875 -26.316406 11.296875 -23.984375 C 9.429688 -21.648438 8.5 -18.460938 8.5 -14.421875 C 8.5 -10.390625 9.390625 -7.1875 11.171875 -4.8125 C 12.960938 -2.445312 15.382812 -1.222656 18.4375 -1.140625 C 21.601562 -1.140625 24.015625 -1.929688 25.671875 -3.515625 C 27.367188 -5.148438 28.546875 -7.957031 29.203125 -11.9375 L 29.515625 -11.9375 L 29.9375 -4.90625 C 27.726562 -1.25 23.992188 0.566406 18.734375 0.546875 Z M 18.734375 0.546875 "/></g></g></g><g fill="#001734" fill-opacity="1"><g transform="translate(66.94241, 198.749987)"><g><path d="M 30.1875 -0.40625 L 30.546875 -0.40625 L 30.546875 0 L 17.5 0 L 17.5 -0.40625 L 17.875 -0.40625 C 18.476562 -0.40625 18.921875 -0.585938 19.203125 -0.953125 C 19.492188 -1.328125 19.640625 -1.675781 19.640625 -2 C 19.640625 -2.332031 19.566406 -2.660156 19.421875 -2.984375 L 17.421875 -8.015625 L 7.859375 -8.015625 L 5.734375 -2.984375 C 5.597656 -2.628906 5.53125 -2.296875 5.53125 -1.984375 C 5.53125 -1.671875 5.675781 -1.328125 5.96875 -0.953125 C 6.269531 -0.585938 6.722656 -0.40625 7.328125 -0.40625 L 7.65625 -0.40625 L 7.65625 0 L -1.09375 0 L -1.09375 -0.40625 L -0.734375 -0.40625 C -0.109375 -0.40625 0.515625 -0.59375 1.140625 -0.96875 C 1.773438 -1.351562 2.296875 -1.929688 2.703125 -2.703125 L 12.15625 -24.078125 C 13.4375 -26.773438 14.113281 -28.5625 14.1875 -29.4375 L 14.5625 -29.4375 L 26.703125 -2.78125 C 27.117188 -1.988281 27.640625 -1.394531 28.265625 -1 C 28.890625 -0.601562 29.53125 -0.40625 30.1875 -0.40625 Z M 8.546875 -9.734375 L 16.734375 -9.734375 L 12.765625 -19.796875 Z M 8.546875 -9.734375 "/></g></g></g><g fill="#001734" fill-opacity="1"><g transform="translate(96.217287, 198.749987)"><g><path d="M 13 -26.828125 L 11.25 -26.828125 C 11.1875 -26.828125 11.144531 -26.828125 11.125 -26.828125 L 11.125 -2.984375 C 11.144531 -2.273438 11.40625 -1.664062 11.90625 -1.15625 C 12.414062 -0.65625 13.023438 -0.40625 13.734375 -0.40625 L 14.265625 -0.40625 L 14.265625 0 L 1.84375 0 L 1.84375 -0.40625 L 2.375 -0.40625 C 3.351562 -0.40625 4.101562 -0.828125 4.625 -1.671875 C 4.84375 -2.054688 4.960938 -2.476562 4.984375 -2.9375 L 4.984375 -25.640625 C 4.960938 -26.347656 4.695312 -26.953125 4.1875 -27.453125 C 3.6875 -27.960938 3.082031 -28.21875 2.375 -28.21875 L 1.84375 -28.21875 L 1.84375 -28.625 L 15.859375 -28.625 C 18.503906 -28.625 20.742188 -28.050781 22.578125 -26.90625 C 23.503906 -26.332031 24.238281 -25.535156 24.78125 -24.515625 C 25.320312 -23.492188 25.59375 -22.15625 25.59375 -20.5 C 25.59375 -18.851562 25.019531 -17.265625 23.875 -15.734375 C 22.726562 -14.210938 21.066406 -13.34375 18.890625 -13.125 C 20.472656 -12.601562 21.863281 -11.40625 23.0625 -9.53125 C 26.007812 -4.8125 28.191406 -2.003906 29.609375 -1.109375 C 30.316406 -0.671875 31.203125 -0.4375 32.265625 -0.40625 L 32.265625 0 L 28.25 0 C 25.882812 0 23.914062 -0.3125 22.34375 -0.9375 C 20.78125 -1.5625 19.546875 -2.664062 18.640625 -4.25 C 18.128906 -5.15625 17 -7.488281 15.25 -11.25 C 14.488281 -12.90625 13.5625 -13.816406 12.46875 -13.984375 L 12.46875 -14.390625 L 13.734375 -14.390625 C 14.960938 -14.390625 16.046875 -14.757812 16.984375 -15.5 C 17.929688 -16.238281 18.566406 -17.4375 18.890625 -19.09375 C 19.003906 -19.664062 19.0625 -20.117188 19.0625 -20.453125 C 19.0625 -22.679688 18.609375 -24.289062 17.703125 -25.28125 C 16.804688 -26.28125 15.648438 -26.796875 14.234375 -26.828125 C 13.960938 -26.828125 13.550781 -26.828125 13 -26.828125 Z M 13 -26.828125 "/></g></g></g><g fill="#001734" fill-opacity="1"><g transform="translate(126.759655, 198.749987)"><g><path d="M 2.25 -0.40625 C 2.957031 -0.40625 3.5625 -0.65625 4.0625 -1.15625 C 4.570312 -1.664062 4.835938 -2.273438 4.859375 -2.984375 L 4.859375 -25.671875 C 4.835938 -26.390625 4.570312 -26.992188 4.0625 -27.484375 C 3.5625 -27.972656 2.957031 -28.21875 2.25 -28.21875 L 1.71875 -28.21875 L 1.71875 -28.625 L 14.140625 -28.625 L 14.109375 -28.21875 L 13.609375 -28.21875 C 12.898438 -28.21875 12.285156 -27.972656 11.765625 -27.484375 C 11.253906 -26.992188 11 -26.390625 11 -25.671875 L 11 -2.984375 C 11 -2.273438 11.253906 -1.664062 11.765625 -1.15625 C 12.285156 -0.65625 12.898438 -0.40625 13.609375 -0.40625 L 14.109375 -0.40625 L 14.140625 0 L 1.71875 0 L 1.71875 -0.40625 Z M 2.25 -0.40625 "/></g></g></g><g fill="#001734" fill-opacity="1"><g transform="translate(142.541916, 198.749987)"><g><path d="M 33.40625 -28.21875 C 32.445312 -28.21875 31.722656 -27.804688 31.234375 -26.984375 C 31.015625 -26.628906 30.894531 -26.222656 30.875 -25.765625 L 30.875 -4.65625 C 30.875 -2.832031 30.992188 -1.296875 31.234375 -0.046875 L 31.359375 0.578125 L 31 0.578125 L 10.34375 -19.09375 L 10.34375 -2.859375 C 10.34375 -2.179688 10.585938 -1.601562 11.078125 -1.125 C 11.566406 -0.644531 12.15625 -0.40625 12.84375 -0.40625 L 13.609375 -0.40625 L 13.609375 0 L 1.234375 0 L 1.234375 -0.40625 L 1.96875 -0.40625 C 2.675781 -0.40625 3.273438 -0.644531 3.765625 -1.125 C 4.253906 -1.601562 4.5 -2.195312 4.5 -2.90625 L 4.5 -24.125 C 4.5 -25.925781 4.375 -27.425781 4.125 -28.625 L 4.046875 -29.234375 L 4.421875 -29.234375 L 25.0625 -9.5625 L 25.0625 -25.71875 C 25.039062 -26.425781 24.78125 -27.019531 24.28125 -27.5 C 23.789062 -27.976562 23.207031 -28.21875 22.53125 -28.21875 L 21.796875 -28.21875 L 21.796875 -28.625 L 34.1875 -28.625 L 34.1875 -28.21875 Z M 33.40625 -28.21875 "/></g></g></g><g fill="#001734" fill-opacity="1"><g transform="translate(177.908907, 198.749987)"><g><path d="M 30.1875 -0.40625 L 30.546875 -0.40625 L 30.546875 0 L 17.5 0 L 17.5 -0.40625 L 17.875 -0.40625 C 18.476562 -0.40625 18.921875 -0.585938 19.203125 -0.953125 C 19.492188 -1.328125 19.640625 -1.675781 19.640625 -2 C 19.640625 -2.332031 19.566406 -2.660156 19.421875 -2.984375 L 17.421875 -8.015625 L 7.859375 -8.015625 L 5.734375 -2.984375 C 5.597656 -2.628906 5.53125 -2.296875 5.53125 -1.984375 C 5.53125 -1.671875 5.675781 -1.328125 5.96875 -0.953125 C 6.269531 -0.585938 6.722656 -0.40625 7.328125 -0.40625 L 7.65625 -0.40625 L 7.65625 0 L -1.09375 0 L -1.09375 -0.40625 L -0.734375 -0.40625 C -0.109375 -0.40625 0.515625 -0.59375 1.140625 -0.96875 C 1.773438 -1.351562 2.296875 -1.929688 2.703125 -2.703125 L 12.15625 -24.078125 C 13.4375 -26.773438 14.113281 -28.5625 14.1875 -29.4375 L 14.5625 -29.4375 L 26.703125 -2.78125 C 27.117188 -1.988281 27.640625 -1.394531 28.265625 -1 C 28.890625 -0.601562 29.53125 -0.40625 30.1875 -0.40625 Z M 8.546875 -9.734375 L 16.734375 -9.734375 L 12.765625 -19.796875 Z M 8.546875 -9.734375 "/></g></g></g><g fill="#001734" fill-opacity="1"><g transform="translate(207.183784, 198.749987)"><g/></g></g><g fill="#001734" fill-opacity="1"><g transform="translate(217.405463, 198.749987)"><g><path d="M 25.640625 -20.453125 C 25.640625 -19.191406 25.394531 -18.003906 24.90625 -16.890625 C 23.976562 -14.734375 22.257812 -13.257812 19.75 -12.46875 C 19.007812 -12.226562 18.328125 -12.109375 17.703125 -12.109375 C 15.765625 -12.109375 14.035156 -12.609375 12.515625 -13.609375 L 12.515625 -14.03125 C 14.554688 -13.96875 16.203125 -14.632812 17.453125 -16.03125 C 18.546875 -17.226562 19.09375 -18.796875 19.09375 -20.734375 C 19.09375 -22.691406 18.625 -24.207031 17.6875 -25.28125 C 16.75 -26.363281 15.472656 -26.90625 13.859375 -26.90625 L 11.125 -26.90625 L 11.125 -2.984375 C 11.125 -2.273438 11.378906 -1.664062 11.890625 -1.15625 C 12.410156 -0.65625 13.023438 -0.40625 13.734375 -0.40625 L 14.265625 -0.40625 L 14.265625 0 L 1.84375 0 L 1.84375 -0.40625 L 2.375 -0.40625 C 3.082031 -0.40625 3.6875 -0.65625 4.1875 -1.15625 C 4.695312 -1.664062 4.960938 -2.273438 4.984375 -2.984375 L 4.984375 -25.84375 C 4.984375 -26.519531 4.722656 -27.082031 4.203125 -27.53125 C 3.691406 -27.988281 3.082031 -28.21875 2.375 -28.21875 L 1.84375 -28.21875 L 1.84375 -28.625 L 15.5 -28.625 C 18.820312 -28.625 21.328125 -27.914062 23.015625 -26.5 C 24.765625 -25 25.640625 -22.984375 25.640625 -20.453125 Z M 25.640625 -20.453125 "/></g></g></g><g fill="#001734" fill-opacity="1"><g transform="translate(244.186239, 198.749987)"><g><path d="M 2.25 -0.40625 C 2.957031 -0.40625 3.5625 -0.65625 4.0625 -1.15625 C 4.570312 -1.664062 4.835938 -2.273438 4.859375 -2.984375 L 4.859375 -25.671875 C 4.835938 -26.390625 4.570312 -26.992188 4.0625 -27.484375 C 3.5625 -27.972656 2.957031 -28.21875 2.25 -28.21875 L 1.71875 -28.21875 L 1.71875 -28.625 L 14.140625 -28.625 L 14.109375 -28.21875 L 13.609375 -28.21875 C 12.898438 -28.21875 12.285156 -27.972656 11.765625 -27.484375 C 11.253906 -26.992188 11 -26.390625 11 -25.671875 L 11 -2.984375 C 11 -2.273438 11.253906 -1.664062 11.765625 -1.15625 C 12.285156 -0.65625 12.898438 -0.40625 13.609375 -0.40625 L 14.109375 -0.40625 L 14.140625 0 L 1.71875 0 L 1.71875 -0.40625 Z M 2.25 -0.40625 "/></g></g></g><g fill="#001734" fill-opacity="1"><g transform="translate(259.96851, 198.749987)"><g><path d="M 13 -26.828125 L 11.25 -26.828125 C 11.1875 -26.828125 11.144531 -26.828125 11.125 -26.828125 L 11.125 -2.984375 C 11.144531 -2.273438 11.40625 -1.664062 11.90625 -1.15625 C 12.414062 -0.65625 13.023438 -0.40625 13.734375 -0.40625 L 14.265625 -0.40625 L 14.265625 0 L 1.84375 0 L 1.84375 -0.40625 L 2.375 -0.40625 C 3.351562 -0.40625 4.101562 -0.828125 4.625 -1.671875 C 4.84375 -2.054688 4.960938 -2.476562 4.984375 -2.9375 L 4.984375 -25.640625 C 4.960938 -26.347656 4.695312 -26.953125 4.1875 -27.453125 C 3.6875 -27.960938 3.082031 -28.21875 2.375 -28.21875 L 1.84375 -28.21875 L 1.84375 -28.625 L 15.859375 -28.625 C 18.503906 -28.625 20.742188 -28.050781 22.578125 -26.90625 C 23.503906 -26.332031 24.238281 -25.535156 24.78125 -24.515625 C 25.320312 -23.492188 25.59375 -22.15625 25.59375 -20.5 C 25.59375 -18.851562 25.019531 -17.265625 23.875 -15.734375 C 22.726562 -14.210938 21.066406 -13.34375 18.890625 -13.125 C 20.472656 -12.601562 21.863281 -11.40625 23.0625 -9.53125 C 26.007812 -4.8125 28.191406 -2.003906 29.609375 -1.109375 C 30.316406 -0.671875 31.203125 -0.4375 32.265625 -0.40625 L 32.265625 0 L 28.25 0 C 25.882812 0 23.914062 -0.3125 22.34375 -0.9375 C 20.78125 -1.5625 19.546875 -2.664062 18.640625 -4.25 C 18.128906 -5.15625 17 -7.488281 15.25 -11.25 C 14.488281 -12.90625 13.5625 -13.816406 12.46875 -13.984375 L 12.46875 -14.390625 L 13.734375 -14.390625 C 14.960938 -14.390625 16.046875 -14.757812 16.984375 -15.5 C 17.929688 -16.238281 18.566406 -17.4375 18.890625 -19.09375 C 19.003906 -19.664062 19.0625 -20.117188 19.0625 -20.453125 C 19.0625 -22.679688 18.609375 -24.289062 17.703125 -25.28125 C 16.804688 -26.28125 15.648438 -26.796875 14.234375 -26.828125 C 13.960938 -26.828125 13.550781 -26.828125 13 -26.828125 Z M 13 -26.828125 "/></g></g></g><g fill="#001734" fill-opacity="1"><g transform="translate(290.510867, 198.749987)"><g><path d="M 2.25 -0.40625 C 2.957031 -0.40625 3.5625 -0.65625 4.0625 -1.15625 C 4.570312 -1.664062 4.835938 -2.273438 4.859375 -2.984375 L 4.859375 -25.765625 C 4.804688 -26.472656 4.601562 -26.988281 4.25 -27.3125 C 3.59375 -27.914062 2.925781 -28.21875 2.25 -28.21875 L 1.71875 -28.21875 L 1.71875 -28.625 L 17.375 -28.625 C 18.707031 -28.625 19.8125 -28.722656 20.6875 -28.921875 C 21.5625 -29.128906 22.09375 -29.273438 22.28125 -29.359375 L 22.28125 -22.203125 L 21.875 -22.25 L 21.875 -22.6875 C 21.875 -24.382812 21.25 -25.585938 20 -26.296875 C 19.394531 -26.648438 18.6875 -26.835938 17.875 -26.859375 L 11 -26.859375 L 11 -14.96875 L 16.390625 -14.96875 C 17.398438 -14.988281 18.234375 -15.332031 18.890625 -16 C 19.546875 -16.675781 19.875 -17.503906 19.875 -18.484375 L 19.875 -18.84375 L 20.28125 -18.84375 L 20.28125 -9.40625 L 19.875 -9.40625 L 19.875 -9.734375 C 19.875 -10.742188 19.550781 -11.570312 18.90625 -12.21875 C 18.269531 -12.875 17.460938 -13.21875 16.484375 -13.25 L 11 -13.25 L 11 -1.765625 L 16.359375 -1.765625 C 18.347656 -1.765625 20.015625 -2.332031 21.359375 -3.46875 C 22.710938 -4.613281 23.71875 -6.238281 24.375 -8.34375 L 24.78125 -8.34375 L 22.90625 0 L 1.71875 0 L 1.71875 -0.40625 Z M 2.25 -0.40625 "/></g></g></g><g fill="#001734" fill-opacity="1"><g transform="translate(316.31038, 198.749987)"><g><path d="M 2.046875 -3.796875 C 2.046875 -5.765625 2.46875 -7.441406 3.3125 -8.828125 L 3.6875 -8.828125 C 3.65625 -8.609375 3.640625 -8.390625 3.640625 -8.171875 C 3.640625 -6.296875 4.3125 -4.65625 5.65625 -3.25 C 7.007812 -1.84375 8.859375 -1.140625 11.203125 -1.140625 C 13.023438 -1.140625 14.445312 -1.578125 15.46875 -2.453125 C 16.5 -3.328125 17.015625 -4.429688 17.015625 -5.765625 C 17.015625 -6.554688 16.757812 -7.265625 16.25 -7.890625 C 15.75 -8.515625 14.910156 -9.210938 13.734375 -9.984375 L 6.625 -14.6875 C 3.976562 -16.457031 2.65625 -18.632812 2.65625 -21.21875 C 2.65625 -21.488281 2.679688 -21.765625 2.734375 -22.046875 C 2.898438 -24.191406 3.738281 -25.921875 5.25 -27.234375 C 6.769531 -28.546875 8.796875 -29.203125 11.328125 -29.203125 C 12.828125 -29.203125 14.679688 -29.0625 16.890625 -28.78125 L 19.46875 -28.78125 L 18.9375 -22.78125 L 18.53125 -22.78125 C 18.53125 -24.195312 18.003906 -25.332031 16.953125 -26.1875 C 15.898438 -27.050781 14.503906 -27.484375 12.765625 -27.484375 C 10.628906 -27.484375 9.085938 -26.828125 8.140625 -25.515625 C 7.648438 -24.890625 7.40625 -24.257812 7.40625 -23.625 C 7.40625 -23 7.523438 -22.472656 7.765625 -22.046875 C 8.148438 -21.335938 8.984375 -20.570312 10.265625 -19.75 L 18.078125 -14.6875 C 20.523438 -13.070312 21.75 -10.96875 21.75 -8.375 C 21.75 -5.488281 20.757812 -3.273438 18.78125 -1.734375 C 16.8125 -0.191406 14.191406 0.578125 10.921875 0.578125 C 9.066406 0.578125 7.351562 0.351562 5.78125 -0.09375 C 4.21875 -0.550781 3.066406 -1.160156 2.328125 -1.921875 C 2.140625 -2.441406 2.046875 -3.066406 2.046875 -3.796875 Z M 2.046875 -3.796875 "/></g></g></g><g fill="#001734" fill-opacity="1"><g transform="translate(128.871094, 233.010892)"><g><path d="M 10.03125 -0.140625 L 10.140625 -0.140625 L 10.140625 0 L 6.984375 0 L 6.984375 -0.140625 L 7.109375 -0.140625 C 7.304688 -0.140625 7.453125 -0.203125 7.546875 -0.328125 C 7.648438 -0.453125 7.703125 -0.570312 7.703125 -0.6875 C 7.703125 -0.800781 7.679688 -0.910156 7.640625 -1.015625 L 6.75 -3.40625 L 2.96875 -3.40625 L 2.03125 -1.015625 C 1.988281 -0.898438 1.96875 -0.785156 1.96875 -0.671875 C 1.96875 -0.566406 2.015625 -0.453125 2.109375 -0.328125 C 2.210938 -0.203125 2.363281 -0.140625 2.5625 -0.140625 L 2.6875 -0.140625 L 2.6875 0 L -0.125 0 L -0.125 -0.140625 L 0 -0.140625 C 0.238281 -0.140625 0.46875 -0.210938 0.6875 -0.359375 C 0.914062 -0.515625 1.097656 -0.734375 1.234375 -1.015625 L 4.390625 -8.546875 C 4.742188 -9.304688 4.921875 -9.789062 4.921875 -10 L 5.046875 -10 L 8.796875 -1.015625 C 8.921875 -0.734375 9.09375 -0.515625 9.3125 -0.359375 C 9.539062 -0.210938 9.78125 -0.140625 10.03125 -0.140625 Z M 3.140625 -3.828125 L 6.578125 -3.828125 L 4.90625 -8.3125 Z M 3.140625 -3.828125 "/></g></g></g><g fill="#001734" fill-opacity="1"><g transform="translate(138.83353, 233.010892)"><g/></g></g><g fill="#001734" fill-opacity="1"><g transform="translate(142.331576, 233.010892)"><g><path d="M 5.59375 -9.796875 C 7.082031 -9.796875 8.289062 -9.34375 9.21875 -8.4375 C 10.144531 -7.539062 10.609375 -6.359375 10.609375 -4.890625 C 10.609375 -3.429688 10.144531 -2.25 9.21875 -1.34375 C 8.289062 -0.445312 7.082031 0 5.59375 0 L 0.84375 0 L 0.84375 -0.140625 L 1.015625 -0.140625 C 1.265625 -0.140625 1.472656 -0.222656 1.640625 -0.390625 C 1.816406 -0.566406 1.910156 -0.773438 1.921875 -1.015625 L 1.921875 -8.859375 C 1.921875 -9.085938 1.828125 -9.273438 1.640625 -9.421875 C 1.460938 -9.578125 1.253906 -9.65625 1.015625 -9.65625 L 0.859375 -9.65625 L 0.84375 -9.796875 Z M 2.828125 -9.375 L 2.828125 -0.421875 L 5.59375 -0.421875 C 6.375 -0.421875 7.0625 -0.609375 7.65625 -0.984375 C 8.257812 -1.359375 8.726562 -1.878906 9.0625 -2.546875 C 9.394531 -3.222656 9.5625 -4.007812 9.5625 -4.90625 C 9.5625 -6.25 9.191406 -7.328125 8.453125 -8.140625 C 7.722656 -8.960938 6.769531 -9.375 5.59375 -9.375 Z M 2.828125 -9.375 "/></g></g></g><g fill="#001734" fill-opacity="1"><g transform="translate(153.623278, 233.010892)"><g/></g></g><g fill="#001734" fill-opacity="1"><g transform="translate(157.121324, 233.010892)"><g><path d="M 10.515625 -9.65625 L 10.390625 -9.65625 C 10.066406 -9.65625 9.773438 -9.53125 9.515625 -9.28125 C 9.367188 -9.15625 9.253906 -8.992188 9.171875 -8.796875 L 5.796875 -1.25 C 5.453125 -0.488281 5.28125 -0.00390625 5.28125 0.203125 L 5.15625 0.203125 L 1.21875 -8.78125 C 1.09375 -9.070312 0.914062 -9.289062 0.6875 -9.4375 C 0.457031 -9.582031 0.222656 -9.65625 -0.015625 -9.65625 L -0.125 -9.65625 L -0.125 -9.796875 L 3.03125 -9.796875 L 3.03125 -9.65625 L 2.90625 -9.65625 C 2.625 -9.65625 2.4375 -9.523438 2.34375 -9.265625 C 2.320312 -9.210938 2.3125 -9.144531 2.3125 -9.0625 C 2.3125 -8.988281 2.332031 -8.898438 2.375 -8.796875 L 5.3125 -1.453125 L 8.359375 -8.796875 C 8.398438 -8.898438 8.421875 -9.003906 8.421875 -9.109375 C 8.421875 -9.222656 8.367188 -9.34375 8.265625 -9.46875 C 8.171875 -9.59375 8.023438 -9.65625 7.828125 -9.65625 L 7.703125 -9.65625 L 7.703125 -9.796875 L 10.515625 -9.796875 Z M 10.515625 -9.65625 "/></g></g></g><g fill="#001734" fill-opacity="1"><g transform="translate(167.475549, 233.010892)"><g/></g></g><g fill="#001734" fill-opacity="1"><g transform="translate(170.973595, 233.010892)"><g><path d="M 2.375 -8.59375 C 3.300781 -9.53125 4.507812 -10 6 -10 C 7.5 -10 8.710938 -9.53125 9.640625 -8.59375 C 10.578125 -7.65625 11.046875 -6.425781 11.046875 -4.90625 C 11.046875 -3.382812 10.578125 -2.148438 9.640625 -1.203125 C 8.710938 -0.265625 7.5 0.203125 6 0.203125 C 4.507812 0.203125 3.300781 -0.265625 2.375 -1.203125 C 1.445312 -2.148438 0.984375 -3.382812 0.984375 -4.90625 C 0.984375 -6.425781 1.445312 -7.65625 2.375 -8.59375 Z M 3.140625 -1.5 C 3.867188 -0.644531 4.828125 -0.21875 6.015625 -0.21875 C 7.203125 -0.21875 8.15625 -0.644531 8.875 -1.5 C 9.601562 -2.363281 9.96875 -3.5 9.96875 -4.90625 C 9.96875 -5.820312 9.800781 -6.632812 9.46875 -7.34375 C 9.144531 -8.050781 8.679688 -8.597656 8.078125 -8.984375 C 7.484375 -9.378906 6.789062 -9.578125 6 -9.578125 C 4.820312 -9.578125 3.867188 -9.144531 3.140625 -8.28125 C 2.421875 -7.425781 2.0625 -6.296875 2.0625 -4.890625 C 2.0625 -3.492188 2.421875 -2.363281 3.140625 -1.5 Z M 3.140625 -1.5 "/></g></g></g><g fill="#001734" fill-opacity="1"><g transform="translate(182.699051, 233.010892)"><g/></g></g><g fill="#001734" fill-opacity="1"><g transform="translate(186.197098, 233.010892)"><g><path d="M 5.84375 0.203125 C 4.363281 0.191406 3.160156 -0.28125 2.234375 -1.21875 C 1.304688 -2.15625 0.84375 -3.382812 0.84375 -4.90625 C 0.84375 -6.4375 1.304688 -7.664062 2.234375 -8.59375 C 3.160156 -9.53125 4.390625 -10 5.921875 -10 C 7.171875 -10 8.273438 -9.679688 9.234375 -9.046875 L 9.515625 -7.0625 L 9.390625 -7.0625 C 9.191406 -7.875 8.773438 -8.492188 8.140625 -8.921875 C 7.515625 -9.359375 6.773438 -9.578125 5.921875 -9.578125 C 4.703125 -9.578125 3.722656 -9.148438 2.984375 -8.296875 C 2.253906 -7.453125 1.890625 -6.328125 1.890625 -4.921875 C 1.890625 -3.523438 2.25 -2.398438 2.96875 -1.546875 C 3.695312 -0.691406 4.65625 -0.25 5.84375 -0.21875 C 6.882812 -0.21875 7.753906 -0.503906 8.453125 -1.078125 C 9.210938 -1.691406 9.671875 -2.695312 9.828125 -4.09375 L 9.9375 -4.09375 L 9.765625 -1.890625 C 8.921875 -0.492188 7.613281 0.203125 5.84375 0.203125 Z M 5.84375 0.203125 "/></g></g></g><g fill="#001734" fill-opacity="1"><g transform="translate(196.831164, 233.010892)"><g/></g></g><g fill="#001734" fill-opacity="1"><g transform="translate(200.329211, 233.010892)"><g><path d="M 10.03125 -0.140625 L 10.140625 -0.140625 L 10.140625 0 L 6.984375 0 L 6.984375 -0.140625 L 7.109375 -0.140625 C 7.304688 -0.140625 7.453125 -0.203125 7.546875 -0.328125 C 7.648438 -0.453125 7.703125 -0.570312 7.703125 -0.6875 C 7.703125 -0.800781 7.679688 -0.910156 7.640625 -1.015625 L 6.75 -3.40625 L 2.96875 -3.40625 L 2.03125 -1.015625 C 1.988281 -0.898438 1.96875 -0.785156 1.96875 -0.671875 C 1.96875 -0.566406 2.015625 -0.453125 2.109375 -0.328125 C 2.210938 -0.203125 2.363281 -0.140625 2.5625 -0.140625 L 2.6875 -0.140625 L 2.6875 0 L -0.125 0 L -0.125 -0.140625 L 0 -0.140625 C 0.238281 -0.140625 0.46875 -0.210938 0.6875 -0.359375 C 0.914062 -0.515625 1.097656 -0.734375 1.234375 -1.015625 L 4.390625 -8.546875 C 4.742188 -9.304688 4.921875 -9.789062 4.921875 -10 L 5.046875 -10 L 8.796875 -1.015625 C 8.921875 -0.734375 9.09375 -0.515625 9.3125 -0.359375 C 9.539062 -0.210938 9.78125 -0.140625 10.03125 -0.140625 Z M 3.140625 -3.828125 L 6.578125 -3.828125 L 4.90625 -8.3125 Z M 3.140625 -3.828125 "/></g></g></g><g fill="#001734" fill-opacity="1"><g transform="translate(210.291647, 233.010892)"><g/></g></g><g fill="#001734" fill-opacity="1"><g transform="translate(213.789694, 233.010892)"><g><path d="M 5.84375 0.203125 C 4.363281 0.191406 3.160156 -0.28125 2.234375 -1.21875 C 1.304688 -2.15625 0.84375 -3.382812 0.84375 -4.90625 C 0.84375 -6.4375 1.304688 -7.664062 2.234375 -8.59375 C 3.160156 -9.53125 4.390625 -10 5.921875 -10 C 7.171875 -10 8.273438 -9.679688 9.234375 -9.046875 L 9.515625 -7.0625 L 9.390625 -7.0625 C 9.191406 -7.875 8.773438 -8.492188 8.140625 -8.921875 C 7.515625 -9.359375 6.773438 -9.578125 5.921875 -9.578125 C 4.703125 -9.578125 3.722656 -9.148438 2.984375 -8.296875 C 2.253906 -7.453125 1.890625 -6.328125 1.890625 -4.921875 C 1.890625 -3.523438 2.25 -2.398438 2.96875 -1.546875 C 3.695312 -0.691406 4.65625 -0.25 5.84375 -0.21875 C 6.882812 -0.21875 7.753906 -0.503906 8.453125 -1.078125 C 9.210938 -1.691406 9.671875 -2.695312 9.828125 -4.09375 L 9.9375 -4.09375 L 9.765625 -1.890625 C 8.921875 -0.492188 7.613281 0.203125 5.84375 0.203125 Z M 5.84375 0.203125 "/></g></g></g><g fill="#001734" fill-opacity="1"><g transform="translate(224.423761, 233.010892)"><g/></g></g><g fill="#001734" fill-opacity="1"><g transform="translate(227.921807, 233.010892)"><g><path d="M 1.015625 -0.140625 C 1.265625 -0.140625 1.472656 -0.222656 1.640625 -0.390625 C 1.816406 -0.566406 1.910156 -0.773438 1.921875 -1.015625 L 1.921875 -8.796875 C 1.910156 -9.035156 1.816406 -9.238281 1.640625 -9.40625 C 1.472656 -9.570312 1.265625 -9.65625 1.015625 -9.65625 L 0.84375 -9.65625 L 0.84375 -9.796875 L 3.90625 -9.796875 L 3.90625 -9.65625 L 3.71875 -9.65625 C 3.476562 -9.65625 3.269531 -9.570312 3.09375 -9.40625 C 2.925781 -9.238281 2.835938 -9.035156 2.828125 -8.796875 L 2.828125 -1.015625 C 2.828125 -0.773438 2.914062 -0.566406 3.09375 -0.390625 C 3.269531 -0.222656 3.476562 -0.140625 3.71875 -0.140625 L 3.90625 -0.140625 L 3.90625 0 L 0.84375 0 L 0.84375 -0.140625 Z M 1.015625 -0.140625 "/></g></g></g><g fill="#001734" fill-opacity="1"><g transform="translate(232.651169, 233.010892)"><g/></g></g><g fill="#001734" fill-opacity="1"><g transform="translate(236.149216, 233.010892)"><g><path d="M 10.03125 -0.140625 L 10.140625 -0.140625 L 10.140625 0 L 6.984375 0 L 6.984375 -0.140625 L 7.109375 -0.140625 C 7.304688 -0.140625 7.453125 -0.203125 7.546875 -0.328125 C 7.648438 -0.453125 7.703125 -0.570312 7.703125 -0.6875 C 7.703125 -0.800781 7.679688 -0.910156 7.640625 -1.015625 L 6.75 -3.40625 L 2.96875 -3.40625 L 2.03125 -1.015625 C 1.988281 -0.898438 1.96875 -0.785156 1.96875 -0.671875 C 1.96875 -0.566406 2.015625 -0.453125 2.109375 -0.328125 C 2.210938 -0.203125 2.363281 -0.140625 2.5625 -0.140625 L 2.6875 -0.140625 L 2.6875 0 L -0.125 0 L -0.125 -0.140625 L 0 -0.140625 C 0.238281 -0.140625 0.46875 -0.210938 0.6875 -0.359375 C 0.914062 -0.515625 1.097656 -0.734375 1.234375 -1.015625 L 4.390625 -8.546875 C 4.742188 -9.304688 4.921875 -9.789062 4.921875 -10 L 5.046875 -10 L 8.796875 -1.015625 C 8.921875 -0.734375 9.09375 -0.515625 9.3125 -0.359375 C 9.539062 -0.210938 9.78125 -0.140625 10.03125 -0.140625 Z M 3.140625 -3.828125 L 6.578125 -3.828125 L 4.90625 -8.3125 Z M 3.140625 -3.828125 "/></g></g></g><g fill="#001734" fill-opacity="1"><g transform="translate(246.117176, 233.010892)"><g/></g></g><path stroke-linecap="butt" transform="matrix(0.75, 0, 0, 0.75, 37.500002, 211.535905)" fill="none" stroke-linejoin="miter" d="M -0.00000271667 0.499002 L 400.000024 0.499002 " stroke="#001734" stroke-width="1" stroke-opacity="1" stroke-miterlimit="4"/></svg>