<svg xmlns="http://www.w3.org/2000/svg" xmlns:xlink="http://www.w3.org/1999/xlink"  zoomAndPan="magnify" viewBox="0 0 375 374.999991" height="500" preserveAspectRatio="xMidYMid meet" version="1.0"><defs><g/></defs><rect x="-37.5" fill="#ffffff" y="-37.499999" fill-opacity="1"/><rect x="-37.5" fill="#ffffff" y="-37.499999" fill-opacity="1"/><g fill="#ffffff" fill-opacity="1"><g transform="translate(45.738283, 198.749987)"><g><path d="M 17.046875 0.578125 C 12.742188 0.546875 9.234375 -0.828125 6.515625 -3.546875 C 3.804688 -6.273438 2.453125 -9.867188 2.453125 -14.328125 C 2.453125 -18.785156 3.804688 -22.378906 6.515625 -25.109375 C 9.234375 -27.835938 12.828125 -29.203125 17.296875 -29.203125 C 20.953125 -29.203125 24.179688 -28.273438 26.984375 -26.421875 L 27.8125 -20.65625 L 27.4375 -20.65625 C 26.832031 -23 25.617188 -24.800781 23.796875 -26.0625 C 21.972656 -27.332031 19.804688 -27.96875 17.296875 -27.96875 C 13.722656 -27.96875 10.863281 -26.726562 8.71875 -24.25 C 6.582031 -21.769531 5.515625 -18.484375 5.515625 -14.390625 C 5.515625 -10.304688 6.570312 -7.015625 8.6875 -4.515625 C 10.800781 -2.023438 13.585938 -0.738281 17.046875 -0.65625 C 20.097656 -0.65625 22.648438 -1.488281 24.703125 -3.15625 C 26.910156 -4.945312 28.242188 -7.875 28.703125 -11.9375 L 29.03125 -11.9375 L 28.546875 -5.515625 C 26.066406 -1.453125 22.234375 0.578125 17.046875 0.578125 Z M 17.046875 0.578125 "/></g></g></g><g fill="#ffffff" fill-opacity="1"><g transform="translate(76.812171, 198.749987)"><g><path d="M 29.28125 -0.40625 L 29.609375 -0.40625 L 29.609375 0 L 20.40625 0 L 20.40625 -0.40625 L 20.78125 -0.40625 C 21.351562 -0.40625 21.78125 -0.585938 22.0625 -0.953125 C 22.351562 -1.328125 22.5 -1.675781 22.5 -2 C 22.5 -2.332031 22.441406 -2.660156 22.328125 -2.984375 L 19.71875 -9.9375 L 8.671875 -9.9375 L 5.9375 -2.9375 C 5.820312 -2.613281 5.765625 -2.296875 5.765625 -1.984375 C 5.765625 -1.671875 5.90625 -1.328125 6.1875 -0.953125 C 6.476562 -0.585938 6.910156 -0.40625 7.484375 -0.40625 L 7.859375 -0.40625 L 7.859375 0 L -0.359375 0 L -0.359375 -0.40625 L 0 -0.40625 C 0.6875 -0.40625 1.351562 -0.625 2 -1.0625 C 2.65625 -1.5 3.191406 -2.140625 3.609375 -2.984375 L 12.84375 -24.984375 C 13.851562 -27.191406 14.359375 -28.597656 14.359375 -29.203125 L 14.734375 -29.203125 L 25.6875 -2.984375 C 26.0625 -2.140625 26.578125 -1.5 27.234375 -1.0625 C 27.890625 -0.625 28.570312 -0.40625 29.28125 -0.40625 Z M 9.171875 -11.15625 L 19.21875 -11.15625 L 14.3125 -24.296875 Z M 9.171875 -11.15625 "/></g></g></g><g fill="#ffffff" fill-opacity="1"><g transform="translate(105.923501, 198.749987)"><g><path d="M 10.875 -27.359375 L 8.265625 -27.359375 L 8.265625 -2.984375 C 8.265625 -2.273438 8.515625 -1.664062 9.015625 -1.15625 C 9.515625 -0.65625 10.132812 -0.40625 10.875 -0.40625 L 11.375 -0.40625 L 11.40625 0 L 2.453125 0 L 2.453125 -0.40625 L 2.984375 -0.40625 C 3.691406 -0.40625 4.296875 -0.648438 4.796875 -1.140625 C 5.304688 -1.628906 5.578125 -2.226562 5.609375 -2.9375 L 5.609375 -25.640625 C 5.578125 -26.347656 5.304688 -26.953125 4.796875 -27.453125 C 4.296875 -27.960938 3.691406 -28.21875 2.984375 -28.21875 L 2.453125 -28.21875 L 2.453125 -28.625 L 13.5 -28.625 C 15.976562 -28.625 17.925781 -27.9375 19.34375 -26.5625 C 20.757812 -25.1875 21.46875 -23.398438 21.46875 -21.203125 C 21.46875 -19.003906 20.789062 -17.109375 19.4375 -15.515625 C 18.09375 -13.921875 16.453125 -13.125 14.515625 -13.125 C 14.921875 -12.9375 15.40625 -12.5625 15.96875 -12 C 16.53125 -11.4375 17.023438 -10.859375 17.453125 -10.265625 C 19.804688 -6.910156 21.335938 -4.84375 22.046875 -4.0625 C 22.753906 -3.289062 23.253906 -2.757812 23.546875 -2.46875 C 23.847656 -2.1875 24.175781 -1.910156 24.53125 -1.640625 C 24.882812 -1.367188 25.238281 -1.148438 25.59375 -0.984375 C 26.382812 -0.597656 27.226562 -0.40625 28.125 -0.40625 L 28.125 0 L 25.890625 0 C 24.710938 0 23.617188 -0.207031 22.609375 -0.625 C 21.597656 -1.050781 20.84375 -1.488281 20.34375 -1.9375 C 19.84375 -2.382812 19.40625 -2.820312 19.03125 -3.25 C 18.664062 -3.675781 17.648438 -5.085938 15.984375 -7.484375 C 14.328125 -9.878906 13.359375 -11.25 13.078125 -11.59375 C 12.804688 -11.9375 12.519531 -12.269531 12.21875 -12.59375 C 11.351562 -13.519531 10.484375 -13.984375 9.609375 -13.984375 L 9.609375 -14.390625 C 9.828125 -14.367188 10.113281 -14.359375 10.46875 -14.359375 C 10.820312 -14.359375 11.257812 -14.367188 11.78125 -14.390625 C 15.15625 -14.472656 17.28125 -15.890625 18.15625 -18.640625 C 18.320312 -19.191406 18.40625 -19.703125 18.40625 -20.171875 C 18.40625 -20.648438 18.40625 -20.957031 18.40625 -21.09375 C 18.34375 -22.925781 17.863281 -24.398438 16.96875 -25.515625 C 16.070312 -26.628906 14.859375 -27.226562 13.328125 -27.3125 C 12.671875 -27.34375 11.851562 -27.359375 10.875 -27.359375 Z M 10.875 -27.359375 "/></g></g></g><g fill="#ffffff" fill-opacity="1"><g transform="translate(133.603793, 198.749987)"><g><path d="M 2.984375 -0.40625 C 3.691406 -0.40625 4.296875 -0.65625 4.796875 -1.15625 C 5.304688 -1.664062 5.578125 -2.273438 5.609375 -2.984375 L 5.609375 -25.671875 C 5.578125 -26.390625 5.304688 -26.992188 4.796875 -27.484375 C 4.296875 -27.972656 3.691406 -28.21875 2.984375 -28.21875 L 2.453125 -28.21875 L 2.453125 -28.625 L 11.40625 -28.625 L 11.40625 -28.21875 L 10.875 -28.21875 C 10.164062 -28.21875 9.554688 -27.972656 9.046875 -27.484375 C 8.546875 -26.992188 8.285156 -26.390625 8.265625 -25.671875 L 8.265625 -2.984375 C 8.265625 -2.273438 8.519531 -1.664062 9.03125 -1.15625 C 9.550781 -0.65625 10.164062 -0.40625 10.875 -0.40625 L 11.40625 -0.40625 L 11.40625 0 L 2.453125 0 L 2.453125 -0.40625 Z M 2.984375 -0.40625 "/></g></g></g><g fill="#ffffff" fill-opacity="1"><g transform="translate(147.423495, 198.749987)"><g><path d="M 31.8125 -28.21875 C 31.132812 -28.21875 30.546875 -27.976562 30.046875 -27.5 C 29.554688 -27.019531 29.300781 -26.441406 29.28125 -25.765625 L 29.28125 -4.65625 C 29.28125 -3.082031 29.375 -1.582031 29.5625 -0.15625 L 29.640625 0.578125 L 29.28125 0.578125 L 7 -23.21875 L 7 -2.859375 C 7.019531 -1.910156 7.441406 -1.203125 8.265625 -0.734375 C 8.640625 -0.515625 9.046875 -0.40625 9.484375 -0.40625 L 10.265625 -0.40625 L 10.265625 0 L 1.84375 0 L 1.84375 -0.40625 L 2.609375 -0.40625 C 3.296875 -0.40625 3.882812 -0.644531 4.375 -1.125 C 4.863281 -1.601562 5.109375 -2.195312 5.109375 -2.90625 L 5.109375 -24.125 C 5.109375 -25.789062 5.015625 -27.273438 4.828125 -28.578125 L 4.75 -29.234375 L 5.15625 -29.234375 L 27.4375 -5.4375 L 27.4375 -25.71875 C 27.40625 -26.425781 27.144531 -27.019531 26.65625 -27.5 C 26.164062 -27.976562 25.582031 -28.21875 24.90625 -28.21875 L 24.125 -28.21875 L 24.125 -28.625 L 32.546875 -28.625 L 32.546875 -28.21875 Z M 31.8125 -28.21875 "/></g></g></g><g fill="#ffffff" fill-opacity="1"><g transform="translate(181.809212, 198.749987)"><g><path d="M 29.28125 -0.40625 L 29.609375 -0.40625 L 29.609375 0 L 20.40625 0 L 20.40625 -0.40625 L 20.78125 -0.40625 C 21.351562 -0.40625 21.78125 -0.585938 22.0625 -0.953125 C 22.351562 -1.328125 22.5 -1.675781 22.5 -2 C 22.5 -2.332031 22.441406 -2.660156 22.328125 -2.984375 L 19.71875 -9.9375 L 8.671875 -9.9375 L 5.9375 -2.9375 C 5.820312 -2.613281 5.765625 -2.296875 5.765625 -1.984375 C 5.765625 -1.671875 5.90625 -1.328125 6.1875 -0.953125 C 6.476562 -0.585938 6.910156 -0.40625 7.484375 -0.40625 L 7.859375 -0.40625 L 7.859375 0 L -0.359375 0 L -0.359375 -0.40625 L 0 -0.40625 C 0.6875 -0.40625 1.351562 -0.625 2 -1.0625 C 2.65625 -1.5 3.191406 -2.140625 3.609375 -2.984375 L 12.84375 -24.984375 C 13.851562 -27.191406 14.359375 -28.597656 14.359375 -29.203125 L 14.734375 -29.203125 L 25.6875 -2.984375 C 26.0625 -2.140625 26.578125 -1.5 27.234375 -1.0625 C 27.890625 -0.625 28.570312 -0.40625 29.28125 -0.40625 Z M 9.171875 -11.15625 L 19.21875 -11.15625 L 14.3125 -24.296875 Z M 9.171875 -11.15625 "/></g></g></g><g fill="#ffffff" fill-opacity="1"><g transform="translate(210.920542, 198.749987)"><g/></g></g><g fill="#ffffff" fill-opacity="1"><g transform="translate(221.142221, 198.749987)"><g><path d="M 21.546875 -20.734375 C 21.546875 -19.535156 21.300781 -18.414062 20.8125 -17.375 C 19.914062 -15.4375 18.332031 -14.085938 16.0625 -13.328125 C 15.28125 -13.054688 14.601562 -12.921875 14.03125 -12.921875 C 12.332031 -12.921875 10.875 -13.234375 9.65625 -13.859375 L 9.65625 -14.265625 C 11.644531 -13.828125 13.484375 -14.046875 15.171875 -14.921875 C 16.671875 -15.679688 17.691406 -16.9375 18.234375 -18.6875 C 18.398438 -19.226562 18.484375 -19.742188 18.484375 -20.234375 C 18.484375 -20.734375 18.484375 -21.035156 18.484375 -21.140625 C 18.429688 -23.046875 17.925781 -24.5625 16.96875 -25.6875 C 16.007812 -26.820312 14.675781 -27.390625 12.96875 -27.390625 L 8.265625 -27.390625 L 8.265625 -2.984375 C 8.285156 -2.273438 8.546875 -1.664062 9.046875 -1.15625 C 9.554688 -0.65625 10.164062 -0.40625 10.875 -0.40625 L 11.40625 -0.40625 L 11.40625 0 L 2.453125 0 L 2.453125 -0.40625 L 2.984375 -0.40625 C 3.691406 -0.40625 4.296875 -0.65625 4.796875 -1.15625 C 5.304688 -1.664062 5.578125 -2.273438 5.609375 -2.984375 L 5.609375 -25.84375 C 5.523438 -26.519531 5.234375 -27.082031 4.734375 -27.53125 C 4.242188 -27.988281 3.660156 -28.21875 2.984375 -28.21875 L 2.5 -28.21875 L 2.453125 -28.625 L 13.125 -28.625 C 15.738281 -28.625 17.796875 -27.921875 19.296875 -26.515625 C 20.796875 -25.109375 21.546875 -23.179688 21.546875 -20.734375 Z M 21.546875 -20.734375 "/></g></g></g><g fill="#ffffff" fill-opacity="1"><g transform="translate(244.73386, 198.749987)"><g><path d="M 2.984375 -0.40625 C 3.691406 -0.40625 4.296875 -0.65625 4.796875 -1.15625 C 5.304688 -1.664062 5.578125 -2.273438 5.609375 -2.984375 L 5.609375 -25.671875 C 5.578125 -26.390625 5.304688 -26.992188 4.796875 -27.484375 C 4.296875 -27.972656 3.691406 -28.21875 2.984375 -28.21875 L 2.453125 -28.21875 L 2.453125 -28.625 L 11.40625 -28.625 L 11.40625 -28.21875 L 10.875 -28.21875 C 10.164062 -28.21875 9.554688 -27.972656 9.046875 -27.484375 C 8.546875 -26.992188 8.285156 -26.390625 8.265625 -25.671875 L 8.265625 -2.984375 C 8.265625 -2.273438 8.519531 -1.664062 9.03125 -1.15625 C 9.550781 -0.65625 10.164062 -0.40625 10.875 -0.40625 L 11.40625 -0.40625 L 11.40625 0 L 2.453125 0 L 2.453125 -0.40625 Z M 2.984375 -0.40625 "/></g></g></g><g fill="#ffffff" fill-opacity="1"><g transform="translate(258.553562, 198.749987)"><g><path d="M 10.875 -27.359375 L 8.265625 -27.359375 L 8.265625 -2.984375 C 8.265625 -2.273438 8.515625 -1.664062 9.015625 -1.15625 C 9.515625 -0.65625 10.132812 -0.40625 10.875 -0.40625 L 11.375 -0.40625 L 11.40625 0 L 2.453125 0 L 2.453125 -0.40625 L 2.984375 -0.40625 C 3.691406 -0.40625 4.296875 -0.648438 4.796875 -1.140625 C 5.304688 -1.628906 5.578125 -2.226562 5.609375 -2.9375 L 5.609375 -25.640625 C 5.578125 -26.347656 5.304688 -26.953125 4.796875 -27.453125 C 4.296875 -27.960938 3.691406 -28.21875 2.984375 -28.21875 L 2.453125 -28.21875 L 2.453125 -28.625 L 13.5 -28.625 C 15.976562 -28.625 17.925781 -27.9375 19.34375 -26.5625 C 20.757812 -25.1875 21.46875 -23.398438 21.46875 -21.203125 C 21.46875 -19.003906 20.789062 -17.109375 19.4375 -15.515625 C 18.09375 -13.921875 16.453125 -13.125 14.515625 -13.125 C 14.921875 -12.9375 15.40625 -12.5625 15.96875 -12 C 16.53125 -11.4375 17.023438 -10.859375 17.453125 -10.265625 C 19.804688 -6.910156 21.335938 -4.84375 22.046875 -4.0625 C 22.753906 -3.289062 23.253906 -2.757812 23.546875 -2.46875 C 23.847656 -2.1875 24.175781 -1.910156 24.53125 -1.640625 C 24.882812 -1.367188 25.238281 -1.148438 25.59375 -0.984375 C 26.382812 -0.597656 27.226562 -0.40625 28.125 -0.40625 L 28.125 0 L 25.890625 0 C 24.710938 0 23.617188 -0.207031 22.609375 -0.625 C 21.597656 -1.050781 20.84375 -1.488281 20.34375 -1.9375 C 19.84375 -2.382812 19.40625 -2.820312 19.03125 -3.25 C 18.664062 -3.675781 17.648438 -5.085938 15.984375 -7.484375 C 14.328125 -9.878906 13.359375 -11.25 13.078125 -11.59375 C 12.804688 -11.9375 12.519531 -12.269531 12.21875 -12.59375 C 11.351562 -13.519531 10.484375 -13.984375 9.609375 -13.984375 L 9.609375 -14.390625 C 9.828125 -14.367188 10.113281 -14.359375 10.46875 -14.359375 C 10.820312 -14.359375 11.257812 -14.367188 11.78125 -14.390625 C 15.15625 -14.472656 17.28125 -15.890625 18.15625 -18.640625 C 18.320312 -19.191406 18.40625 -19.703125 18.40625 -20.171875 C 18.40625 -20.648438 18.40625 -20.957031 18.40625 -21.09375 C 18.34375 -22.925781 17.863281 -24.398438 16.96875 -25.515625 C 16.070312 -26.628906 14.859375 -27.226562 13.328125 -27.3125 C 12.671875 -27.34375 11.851562 -27.359375 10.875 -27.359375 Z M 10.875 -27.359375 "/></g></g></g><g fill="#ffffff" fill-opacity="1"><g transform="translate(286.233842, 198.749987)"><g><path d="M 2.984375 -0.40625 C 3.691406 -0.40625 4.296875 -0.65625 4.796875 -1.15625 C 5.304688 -1.664062 5.578125 -2.273438 5.609375 -2.984375 L 5.609375 -25.890625 C 5.523438 -26.535156 5.234375 -27.082031 4.734375 -27.53125 C 4.242188 -27.988281 3.660156 -28.21875 2.984375 -28.21875 L 2.5 -28.21875 L 2.453125 -28.625 L 14.4375 -28.625 C 15.28125 -28.625 16.195312 -28.703125 17.1875 -28.859375 C 18.1875 -29.023438 18.890625 -29.191406 19.296875 -29.359375 L 19.296875 -24.203125 L 18.890625 -24.203125 L 18.890625 -24.9375 C 18.890625 -25.59375 18.664062 -26.148438 18.21875 -26.609375 C 17.769531 -27.078125 17.234375 -27.328125 16.609375 -27.359375 L 8.265625 -27.359375 L 8.265625 -14.71875 L 15.171875 -14.71875 C 15.710938 -14.75 16.175781 -14.953125 16.5625 -15.328125 C 16.945312 -15.710938 17.140625 -16.191406 17.140625 -16.765625 L 17.140625 -17.34375 L 17.546875 -17.34375 L 17.546875 -10.875 L 17.140625 -10.875 L 17.140625 -11.484375 C 17.140625 -12.035156 16.953125 -12.5 16.578125 -12.875 C 16.210938 -13.257812 15.757812 -13.46875 15.21875 -13.5 L 8.265625 -13.5 L 8.265625 -1.265625 L 14.109375 -1.265625 C 16.128906 -1.265625 17.671875 -1.710938 18.734375 -2.609375 C 19.796875 -3.515625 20.679688 -4.851562 21.390625 -6.625 L 21.796875 -6.625 L 19.421875 0 L 2.453125 0 L 2.453125 -0.40625 Z M 2.984375 -0.40625 "/></g></g></g><g fill="#ffffff" fill-opacity="1"><g transform="translate(309.82547, 198.749987)"><g><path d="M 2.5 -1.671875 C 2.414062 -2.054688 2.375 -2.789062 2.375 -3.875 C 2.375 -4.96875 2.578125 -6.128906 2.984375 -7.359375 L 3.359375 -7.359375 C 3.328125 -7.054688 3.3125 -6.753906 3.3125 -6.453125 C 3.3125 -4.796875 3.816406 -3.414062 4.828125 -2.3125 C 5.835938 -1.207031 7.171875 -0.65625 8.828125 -0.65625 C 10.546875 -0.65625 11.957031 -1.171875 13.0625 -2.203125 C 14.164062 -3.242188 14.71875 -4.546875 14.71875 -6.109375 C 14.71875 -7.679688 14.1875 -8.957031 13.125 -9.9375 L 5.28125 -17.21875 C 3.800781 -18.582031 3.0625 -20.226562 3.0625 -22.15625 C 3.0625 -24.09375 3.707031 -25.75 5 -27.125 C 6.300781 -28.507812 8.054688 -29.203125 10.265625 -29.203125 C 11.296875 -29.203125 12.46875 -29.0625 13.78125 -28.78125 L 15.375 -28.78125 L 15.375 -23.75 L 15 -23.75 C 15 -25.03125 14.554688 -26.050781 13.671875 -26.8125 C 12.785156 -27.582031 11.644531 -27.96875 10.25 -27.96875 C 8.863281 -27.96875 7.703125 -27.503906 6.765625 -26.578125 C 5.828125 -25.648438 5.359375 -24.488281 5.359375 -23.09375 C 5.359375 -21.707031 5.90625 -20.507812 7 -19.5 L 15.046875 -12.0625 C 16.410156 -10.8125 17.09375 -9.09375 17.09375 -6.90625 C 17.09375 -4.726562 16.394531 -2.9375 15 -1.53125 C 13.613281 -0.125 11.765625 0.578125 9.453125 0.578125 C 8.242188 0.578125 6.960938 0.390625 5.609375 0.015625 C 4.265625 -0.347656 3.226562 -0.910156 2.5 -1.671875 Z M 2.5 -1.671875 "/></g></g></g><g fill="#ffffff" fill-opacity="1"><g transform="translate(128.871094, 233.010892)"><g><path d="M 10.03125 -0.140625 L 10.140625 -0.140625 L 10.140625 0 L 6.984375 0 L 6.984375 -0.140625 L 7.109375 -0.140625 C 7.304688 -0.140625 7.453125 -0.203125 7.546875 -0.328125 C 7.648438 -0.453125 7.703125 -0.570312 7.703125 -0.6875 C 7.703125 -0.800781 7.679688 -0.910156 7.640625 -1.015625 L 6.75 -3.40625 L 2.96875 -3.40625 L 2.03125 -1.015625 C 1.988281 -0.898438 1.96875 -0.785156 1.96875 -0.671875 C 1.96875 -0.566406 2.015625 -0.453125 2.109375 -0.328125 C 2.210938 -0.203125 2.363281 -0.140625 2.5625 -0.140625 L 2.6875 -0.140625 L 2.6875 0 L -0.125 0 L -0.125 -0.140625 L 0 -0.140625 C 0.238281 -0.140625 0.46875 -0.210938 0.6875 -0.359375 C 0.914062 -0.515625 1.097656 -0.734375 1.234375 -1.015625 L 4.390625 -8.546875 C 4.742188 -9.304688 4.921875 -9.789062 4.921875 -10 L 5.046875 -10 L 8.796875 -1.015625 C 8.921875 -0.734375 9.09375 -0.515625 9.3125 -0.359375 C 9.539062 -0.210938 9.78125 -0.140625 10.03125 -0.140625 Z M 3.140625 -3.828125 L 6.578125 -3.828125 L 4.90625 -8.3125 Z M 3.140625 -3.828125 "/></g></g></g><g fill="#ffffff" fill-opacity="1"><g transform="translate(138.83353, 233.010892)"><g/></g></g><g fill="#ffffff" fill-opacity="1"><g transform="translate(142.331576, 233.010892)"><g><path d="M 5.59375 -9.796875 C 7.082031 -9.796875 8.289062 -9.34375 9.21875 -8.4375 C 10.144531 -7.539062 10.609375 -6.359375 10.609375 -4.890625 C 10.609375 -3.429688 10.144531 -2.25 9.21875 -1.34375 C 8.289062 -0.445312 7.082031 0 5.59375 0 L 0.84375 0 L 0.84375 -0.140625 L 1.015625 -0.140625 C 1.265625 -0.140625 1.472656 -0.222656 1.640625 -0.390625 C 1.816406 -0.566406 1.910156 -0.773438 1.921875 -1.015625 L 1.921875 -8.859375 C 1.921875 -9.085938 1.828125 -9.273438 1.640625 -9.421875 C 1.460938 -9.578125 1.253906 -9.65625 1.015625 -9.65625 L 0.859375 -9.65625 L 0.84375 -9.796875 Z M 2.828125 -9.375 L 2.828125 -0.421875 L 5.59375 -0.421875 C 6.375 -0.421875 7.0625 -0.609375 7.65625 -0.984375 C 8.257812 -1.359375 8.726562 -1.878906 9.0625 -2.546875 C 9.394531 -3.222656 9.5625 -4.007812 9.5625 -4.90625 C 9.5625 -6.25 9.191406 -7.328125 8.453125 -8.140625 C 7.722656 -8.960938 6.769531 -9.375 5.59375 -9.375 Z M 2.828125 -9.375 "/></g></g></g><g fill="#ffffff" fill-opacity="1"><g transform="translate(153.623278, 233.010892)"><g/></g></g><g fill="#ffffff" fill-opacity="1"><g transform="translate(157.121324, 233.010892)"><g><path d="M 10.515625 -9.65625 L 10.390625 -9.65625 C 10.066406 -9.65625 9.773438 -9.53125 9.515625 -9.28125 C 9.367188 -9.15625 9.253906 -8.992188 9.171875 -8.796875 L 5.796875 -1.25 C 5.453125 -0.488281 5.28125 -0.00390625 5.28125 0.203125 L 5.15625 0.203125 L 1.21875 -8.78125 C 1.09375 -9.070312 0.914062 -9.289062 0.6875 -9.4375 C 0.457031 -9.582031 0.222656 -9.65625 -0.015625 -9.65625 L -0.125 -9.65625 L -0.125 -9.796875 L 3.03125 -9.796875 L 3.03125 -9.65625 L 2.90625 -9.65625 C 2.625 -9.65625 2.4375 -9.523438 2.34375 -9.265625 C 2.320312 -9.210938 2.3125 -9.144531 2.3125 -9.0625 C 2.3125 -8.988281 2.332031 -8.898438 2.375 -8.796875 L 5.3125 -1.453125 L 8.359375 -8.796875 C 8.398438 -8.898438 8.421875 -9.003906 8.421875 -9.109375 C 8.421875 -9.222656 8.367188 -9.34375 8.265625 -9.46875 C 8.171875 -9.59375 8.023438 -9.65625 7.828125 -9.65625 L 7.703125 -9.65625 L 7.703125 -9.796875 L 10.515625 -9.796875 Z M 10.515625 -9.65625 "/></g></g></g><g fill="#ffffff" fill-opacity="1"><g transform="translate(167.475549, 233.010892)"><g/></g></g><g fill="#ffffff" fill-opacity="1"><g transform="translate(170.973595, 233.010892)"><g><path d="M 2.375 -8.59375 C 3.300781 -9.53125 4.507812 -10 6 -10 C 7.5 -10 8.710938 -9.53125 9.640625 -8.59375 C 10.578125 -7.65625 11.046875 -6.425781 11.046875 -4.90625 C 11.046875 -3.382812 10.578125 -2.148438 9.640625 -1.203125 C 8.710938 -0.265625 7.5 0.203125 6 0.203125 C 4.507812 0.203125 3.300781 -0.265625 2.375 -1.203125 C 1.445312 -2.148438 0.984375 -3.382812 0.984375 -4.90625 C 0.984375 -6.425781 1.445312 -7.65625 2.375 -8.59375 Z M 3.140625 -1.5 C 3.867188 -0.644531 4.828125 -0.21875 6.015625 -0.21875 C 7.203125 -0.21875 8.15625 -0.644531 8.875 -1.5 C 9.601562 -2.363281 9.96875 -3.5 9.96875 -4.90625 C 9.96875 -5.820312 9.800781 -6.632812 9.46875 -7.34375 C 9.144531 -8.050781 8.679688 -8.597656 8.078125 -8.984375 C 7.484375 -9.378906 6.789062 -9.578125 6 -9.578125 C 4.820312 -9.578125 3.867188 -9.144531 3.140625 -8.28125 C 2.421875 -7.425781 2.0625 -6.296875 2.0625 -4.890625 C 2.0625 -3.492188 2.421875 -2.363281 3.140625 -1.5 Z M 3.140625 -1.5 "/></g></g></g><g fill="#ffffff" fill-opacity="1"><g transform="translate(182.699051, 233.010892)"><g/></g></g><g fill="#ffffff" fill-opacity="1"><g transform="translate(186.197098, 233.010892)"><g><path d="M 5.84375 0.203125 C 4.363281 0.191406 3.160156 -0.28125 2.234375 -1.21875 C 1.304688 -2.15625 0.84375 -3.382812 0.84375 -4.90625 C 0.84375 -6.4375 1.304688 -7.664062 2.234375 -8.59375 C 3.160156 -9.53125 4.390625 -10 5.921875 -10 C 7.171875 -10 8.273438 -9.679688 9.234375 -9.046875 L 9.515625 -7.0625 L 9.390625 -7.0625 C 9.191406 -7.875 8.773438 -8.492188 8.140625 -8.921875 C 7.515625 -9.359375 6.773438 -9.578125 5.921875 -9.578125 C 4.703125 -9.578125 3.722656 -9.148438 2.984375 -8.296875 C 2.253906 -7.453125 1.890625 -6.328125 1.890625 -4.921875 C 1.890625 -3.523438 2.25 -2.398438 2.96875 -1.546875 C 3.695312 -0.691406 4.65625 -0.25 5.84375 -0.21875 C 6.882812 -0.21875 7.753906 -0.503906 8.453125 -1.078125 C 9.210938 -1.691406 9.671875 -2.695312 9.828125 -4.09375 L 9.9375 -4.09375 L 9.765625 -1.890625 C 8.921875 -0.492188 7.613281 0.203125 5.84375 0.203125 Z M 5.84375 0.203125 "/></g></g></g><g fill="#ffffff" fill-opacity="1"><g transform="translate(196.831164, 233.010892)"><g/></g></g><g fill="#ffffff" fill-opacity="1"><g transform="translate(200.329211, 233.010892)"><g><path d="M 10.03125 -0.140625 L 10.140625 -0.140625 L 10.140625 0 L 6.984375 0 L 6.984375 -0.140625 L 7.109375 -0.140625 C 7.304688 -0.140625 7.453125 -0.203125 7.546875 -0.328125 C 7.648438 -0.453125 7.703125 -0.570312 7.703125 -0.6875 C 7.703125 -0.800781 7.679688 -0.910156 7.640625 -1.015625 L 6.75 -3.40625 L 2.96875 -3.40625 L 2.03125 -1.015625 C 1.988281 -0.898438 1.96875 -0.785156 1.96875 -0.671875 C 1.96875 -0.566406 2.015625 -0.453125 2.109375 -0.328125 C 2.210938 -0.203125 2.363281 -0.140625 2.5625 -0.140625 L 2.6875 -0.140625 L 2.6875 0 L -0.125 0 L -0.125 -0.140625 L 0 -0.140625 C 0.238281 -0.140625 0.46875 -0.210938 0.6875 -0.359375 C 0.914062 -0.515625 1.097656 -0.734375 1.234375 -1.015625 L 4.390625 -8.546875 C 4.742188 -9.304688 4.921875 -9.789062 4.921875 -10 L 5.046875 -10 L 8.796875 -1.015625 C 8.921875 -0.734375 9.09375 -0.515625 9.3125 -0.359375 C 9.539062 -0.210938 9.78125 -0.140625 10.03125 -0.140625 Z M 3.140625 -3.828125 L 6.578125 -3.828125 L 4.90625 -8.3125 Z M 3.140625 -3.828125 "/></g></g></g><g fill="#ffffff" fill-opacity="1"><g transform="translate(210.291647, 233.010892)"><g/></g></g><g fill="#ffffff" fill-opacity="1"><g transform="translate(213.789694, 233.010892)"><g><path d="M 5.84375 0.203125 C 4.363281 0.191406 3.160156 -0.28125 2.234375 -1.21875 C 1.304688 -2.15625 0.84375 -3.382812 0.84375 -4.90625 C 0.84375 -6.4375 1.304688 -7.664062 2.234375 -8.59375 C 3.160156 -9.53125 4.390625 -10 5.921875 -10 C 7.171875 -10 8.273438 -9.679688 9.234375 -9.046875 L 9.515625 -7.0625 L 9.390625 -7.0625 C 9.191406 -7.875 8.773438 -8.492188 8.140625 -8.921875 C 7.515625 -9.359375 6.773438 -9.578125 5.921875 -9.578125 C 4.703125 -9.578125 3.722656 -9.148438 2.984375 -8.296875 C 2.253906 -7.453125 1.890625 -6.328125 1.890625 -4.921875 C 1.890625 -3.523438 2.25 -2.398438 2.96875 -1.546875 C 3.695312 -0.691406 4.65625 -0.25 5.84375 -0.21875 C 6.882812 -0.21875 7.753906 -0.503906 8.453125 -1.078125 C 9.210938 -1.691406 9.671875 -2.695312 9.828125 -4.09375 L 9.9375 -4.09375 L 9.765625 -1.890625 C 8.921875 -0.492188 7.613281 0.203125 5.84375 0.203125 Z M 5.84375 0.203125 "/></g></g></g><g fill="#ffffff" fill-opacity="1"><g transform="translate(224.423761, 233.010892)"><g/></g></g><g fill="#ffffff" fill-opacity="1"><g transform="translate(227.921807, 233.010892)"><g><path d="M 1.015625 -0.140625 C 1.265625 -0.140625 1.472656 -0.222656 1.640625 -0.390625 C 1.816406 -0.566406 1.910156 -0.773438 1.921875 -1.015625 L 1.921875 -8.796875 C 1.910156 -9.035156 1.816406 -9.238281 1.640625 -9.40625 C 1.472656 -9.570312 1.265625 -9.65625 1.015625 -9.65625 L 0.84375 -9.65625 L 0.84375 -9.796875 L 3.90625 -9.796875 L 3.90625 -9.65625 L 3.71875 -9.65625 C 3.476562 -9.65625 3.269531 -9.570312 3.09375 -9.40625 C 2.925781 -9.238281 2.835938 -9.035156 2.828125 -8.796875 L 2.828125 -1.015625 C 2.828125 -0.773438 2.914062 -0.566406 3.09375 -0.390625 C 3.269531 -0.222656 3.476562 -0.140625 3.71875 -0.140625 L 3.90625 -0.140625 L 3.90625 0 L 0.84375 0 L 0.84375 -0.140625 Z M 1.015625 -0.140625 "/></g></g></g><g fill="#ffffff" fill-opacity="1"><g transform="translate(232.651169, 233.010892)"><g/></g></g><g fill="#ffffff" fill-opacity="1"><g transform="translate(236.149216, 233.010892)"><g><path d="M 10.03125 -0.140625 L 10.140625 -0.140625 L 10.140625 0 L 6.984375 0 L 6.984375 -0.140625 L 7.109375 -0.140625 C 7.304688 -0.140625 7.453125 -0.203125 7.546875 -0.328125 C 7.648438 -0.453125 7.703125 -0.570312 7.703125 -0.6875 C 7.703125 -0.800781 7.679688 -0.910156 7.640625 -1.015625 L 6.75 -3.40625 L 2.96875 -3.40625 L 2.03125 -1.015625 C 1.988281 -0.898438 1.96875 -0.785156 1.96875 -0.671875 C 1.96875 -0.566406 2.015625 -0.453125 2.109375 -0.328125 C 2.210938 -0.203125 2.363281 -0.140625 2.5625 -0.140625 L 2.6875 -0.140625 L 2.6875 0 L -0.125 0 L -0.125 -0.140625 L 0 -0.140625 C 0.238281 -0.140625 0.46875 -0.210938 0.6875 -0.359375 C 0.914062 -0.515625 1.097656 -0.734375 1.234375 -1.015625 L 4.390625 -8.546875 C 4.742188 -9.304688 4.921875 -9.789062 4.921875 -10 L 5.046875 -10 L 8.796875 -1.015625 C 8.921875 -0.734375 9.09375 -0.515625 9.3125 -0.359375 C 9.539062 -0.210938 9.78125 -0.140625 10.03125 -0.140625 Z M 3.140625 -3.828125 L 6.578125 -3.828125 L 4.90625 -8.3125 Z M 3.140625 -3.828125 "/></g></g></g><g fill="#ffffff" fill-opacity="1"><g transform="translate(246.117176, 233.010892)"><g/></g></g><path stroke-linecap="butt" transform="matrix(0.75, 0, 0, 0.75, 37.500002, 211.535905)" fill="none" stroke-linejoin="miter" d="M -0.00000271667 0.499002 L 400.000024 0.499002 " stroke="#ffffff" stroke-width="1" stroke-opacity="1" stroke-miterlimit="4"/></svg>