<svg xmlns="http://www.w3.org/2000/svg" xmlns:xlink="http://www.w3.org/1999/xlink" zoomAndPan="magnify" viewBox="0 0 375 374.999991" preserveAspectRatio="xMidYMid meet" version="1.0"><defs><g/></defs><rect x="-37.5" fill="#ffffff" y="-37.499999" fill-opacity="1"/><rect x="-37.5" fill="#ffffff" y="-37.499999" fill-opacity="1"/><g fill="#ffffff" fill-opacity="1"><g transform="translate(158.800775, 171.749989)"><g><path d="M 18.3125 0.53125 C 13.164062 0.519531 9.125 -0.773438 6.1875 -3.359375 C 3.257812 -5.941406 1.796875 -9.488281 1.796875 -14 C 1.796875 -18.507812 3.25 -22.0625 6.15625 -24.65625 C 9.0625 -27.257812 13.050781 -28.5625 18.125 -28.5625 C 21.988281 -28.5625 25.304688 -27.84375 28.078125 -26.40625 L 28.15625 -19.515625 L 27.84375 -19.515625 C 26.476562 -24.421875 23.367188 -26.875 18.515625 -26.875 C 15.367188 -26.875 12.878906 -25.734375 11.046875 -23.453125 C 9.222656 -21.179688 8.3125 -18.070312 8.3125 -14.125 C 8.3125 -10.175781 9.1875 -7.039062 10.9375 -4.71875 C 12.6875 -2.394531 15.054688 -1.195312 18.046875 -1.125 C 21.140625 -1.125 23.5 -1.894531 25.125 -3.4375 C 26.769531 -5.039062 27.914062 -7.789062 28.5625 -11.6875 L 28.875 -11.6875 L 29.28125 -4.796875 C 27.125 -1.222656 23.46875 0.550781 18.3125 0.53125 Z M 18.3125 0.53125 "/></g></g></g><g fill="#ffffff" fill-opacity="1"><g transform="translate(189.997676, 171.749989)"><g><path d="M 25.078125 -20 C 25.078125 -18.769531 24.835938 -17.609375 24.359375 -16.515625 C 23.453125 -14.410156 21.769531 -12.972656 19.3125 -12.203125 C 18.59375 -11.960938 17.925781 -11.84375 17.3125 -11.84375 C 15.425781 -11.84375 13.734375 -12.332031 12.234375 -13.3125 L 12.234375 -13.71875 C 14.234375 -13.664062 15.847656 -14.320312 17.078125 -15.6875 C 18.148438 -16.851562 18.6875 -18.382812 18.6875 -20.28125 C 18.6875 -22.195312 18.222656 -23.679688 17.296875 -24.734375 C 16.378906 -25.785156 15.132812 -26.3125 13.5625 -26.3125 L 10.875 -26.3125 L 10.875 -2.921875 C 10.875 -2.222656 11.128906 -1.628906 11.640625 -1.140625 C 12.148438 -0.648438 12.75 -0.40625 13.4375 -0.40625 L 13.953125 -0.40625 L 13.953125 0 L 1.796875 0 L 1.796875 -0.40625 L 2.3125 -0.40625 C 3.007812 -0.40625 3.601562 -0.648438 4.09375 -1.140625 C 4.59375 -1.628906 4.851562 -2.222656 4.875 -2.921875 L 4.875 -25.28125 C 4.875 -25.945312 4.617188 -26.5 4.109375 -26.9375 C 3.609375 -27.375 3.007812 -27.59375 2.3125 -27.59375 L 1.796875 -27.59375 L 1.796875 -28 L 15.15625 -28 C 18.414062 -28 20.867188 -27.304688 22.515625 -25.921875 C 24.222656 -24.453125 25.078125 -22.476562 25.078125 -20 Z M 25.078125 -20 "/></g></g></g></svg>